<?xml version="1.0" encoding="UTF-8" standalone="no"?>
<svg
   xmlns:dc="http://purl.org/dc/elements/1.1/"
   xmlns:cc="http://creativecommons.org/ns#"
   xmlns:rdf="http://www.w3.org/1999/02/22-rdf-syntax-ns#"
   xmlns:svg="http://www.w3.org/2000/svg"
   xmlns="http://www.w3.org/2000/svg"
   xmlns:sodipodi="http://sodipodi.sourceforge.net/DTD/sodipodi-0.dtd"
   xmlns:inkscape="http://www.inkscape.org/namespaces/inkscape"
   version="1.1"
   id="Layer_1"
   x="0px"
   y="0px"
   viewBox="0 0 512 512"
   style="enable-background:new 0 0 512 512;"
   xml:space="preserve"
   sodipodi:docname="fan_unknown.svg"
   inkscape:version="1.0.2 (e86c870879, 2021-01-15)"><metadata
   id="metadata55"><rdf:RDF><cc:Work
       rdf:about=""><dc:format>image/svg+xml</dc:format><dc:type
         rdf:resource="http://purl.org/dc/dcmitype/StillImage" /><dc:title></dc:title></cc:Work></rdf:RDF></metadata><defs
   id="defs53" /><sodipodi:namedview
   pagecolor="#ff00ff"
   bordercolor="#666666"
   borderopacity="1"
   objecttolerance="10"
   gridtolerance="10"
   guidetolerance="10"
   inkscape:pageopacity="0"
   inkscape:pageshadow="2"
   inkscape:window-width="1914"
   inkscape:window-height="508"
   id="namedview51"
   showgrid="false"
   inkscape:zoom="1.96875"
   inkscape:cx="161.15009"
   inkscape:cy="152.23728"
   inkscape:window-x="3840"
   inkscape:window-y="1088"
   inkscape:window-maximized="0"
   inkscape:current-layer="Layer_1"
   inkscape:pagecheckerboard="false"
   inkscape:document-rotation="0" />
<g
   id="g6"
   style="fill:#ffffff;fill-opacity:1">
	<g
   id="g4"
   style="fill:#ffffff;fill-opacity:1">
		<path
   d="m 255.999,244.944 c -170.666,-163.296 -85.333,-81.648 0,0 z m -59.783,-40.068 c -130.810667,-136.584 -65.40533,-68.292 0,0 z m 70.897,6.759 c -3.474,1.245 -7.221,1.915 -11.113,1.915 -3.903,0 -7.65,-0.67 -11.124,-1.915 -12.882,-4.583 -22.122,-16.911 -22.122,-31.331 0,-3.139 0.44,-6.174 1.256,-9.052 1.779,-6.31 5.4,-11.867 10.224,-16.053 5.839,-5.075 13.447,-8.141 21.766,-8.141 8.309,0 15.917,3.066 21.756,8.131 4.835,4.186 8.455,9.753 10.234,16.074 0.816,2.878 1.256,5.912 1.256,9.041 0,14.431 -9.251,26.748 -22.133,31.331 z"
   id="path2"
   style="fill:#ffffff;fill-opacity:1"
   sodipodi:nodetypes="cccccscsccsccsc" />
	</g>
</g>

<g
   id="g18">
	<g
   id="g16">
		<rect
   x="268.238"
   y="459.384"
   width="15.88"
   height="15.88"
   id="rect14" />
	</g>
</g>
<g
   id="g20">
</g>
<g
   id="g22">
</g>
<g
   id="g24">
</g>
<g
   id="g26">
</g>
<g
   id="g28">
</g>
<g
   id="g30">
</g>
<g
   id="g32">
</g>
<g
   id="g34">
</g>
<g
   id="g36">
</g>
<g
   id="g38">
</g>
<g
   id="g40">
</g>
<g
   id="g42">
</g>
<g
   id="g44">
</g>
<g
   id="g46">
</g>
<g
   id="g48">
</g>
</svg>
