<?xml version="1.0" encoding="UTF-8" standalone="no"?>
<svg
   xmlns:dc="http://purl.org/dc/elements/1.1/"
   xmlns:cc="http://creativecommons.org/ns#"
   xmlns:rdf="http://www.w3.org/1999/02/22-rdf-syntax-ns#"
   xmlns:svg="http://www.w3.org/2000/svg"
   xmlns="http://www.w3.org/2000/svg"
   xmlns:sodipodi="http://sodipodi.sourceforge.net/DTD/sodipodi-0.dtd"
   xmlns:inkscape="http://www.inkscape.org/namespaces/inkscape"
   version="1.1"
   id="Layer_1"
   x="0px"
   y="0px"
   viewBox="0 0 512 512"
   style="enable-background:new 0 0 512 512;"
   xml:space="preserve"
   sodipodi:docname="fan_hard_off.svg"
   inkscape:version="1.0.2 (e86c870879, 2021-01-15)"><metadata
   id="metadata55"><rdf:RDF><cc:Work
       rdf:about=""><dc:format>image/svg+xml</dc:format><dc:type
         rdf:resource="http://purl.org/dc/dcmitype/StillImage" /><dc:title></dc:title></cc:Work></rdf:RDF></metadata><defs
   id="defs53" /><sodipodi:namedview
   pagecolor="#ff00ff"
   bordercolor="#666666"
   borderopacity="1"
   objecttolerance="10"
   gridtolerance="10"
   guidetolerance="10"
   inkscape:pageopacity="0"
   inkscape:pageshadow="2"
   inkscape:window-width="1914"
   inkscape:window-height="508"
   id="namedview51"
   showgrid="false"
   inkscape:zoom="1.96875"
   inkscape:cx="158.22222"
   inkscape:cy="134.09524"
   inkscape:window-x="3840"
   inkscape:window-y="1088"
   inkscape:window-maximized="0"
   inkscape:current-layer="Layer_1"
   inkscape:pagecheckerboard="false" />

<g
   id="g12"
   style="fill:#ffffff;fill-opacity:1">
	<g
   id="g10"
   style="fill:#ffffff;fill-opacity:1">
		<path
   d="M434.421,178.421C434.421,80.033,354.377,0,256,0C157.612,0,77.579,80.033,77.579,178.421    c0,92.182,70.28,168.27,160.076,177.49v63.708h-5.545c-32.712,0-59.334,26.622-59.334,59.334V512H333.93v-33.047    c0-32.712-26.622-59.334-59.334-59.334h-5.547l0.001-63.258C361.357,349.663,434.421,272.414,434.421,178.421z M274.595,451.012    c15.404,0,27.94,12.537,27.94,27.94v1.653h-98.367v-1.653c0-15.404,12.537-27.94,27.94-27.94H274.595z M256,325.448    c-81.069,0-147.027-65.958-147.027-147.027S174.931,31.394,256,31.394s147.027,65.958,147.027,147.027    S337.069,325.448,256,325.448z"
   id="path8"
   style="fill:#ffffff;fill-opacity:1" />
	</g>
</g>
<g
   id="g18">
	<g
   id="g16">
		<rect
   x="268.238"
   y="459.384"
   width="15.88"
   height="15.88"
   id="rect14" />
	</g>
</g>
<g
   id="g20">
</g>
<g
   id="g22">
</g>
<g
   id="g24">
</g>
<g
   id="g26">
</g>
<g
   id="g28">
</g>
<g
   id="g30">
</g>
<g
   id="g32">
</g>
<g
   id="g34">
</g>
<g
   id="g36">
</g>
<g
   id="g38">
</g>
<g
   id="g40">
</g>
<g
   id="g42">
</g>
<g
   id="g44">
</g>
<g
   id="g46">
</g>
<g
   id="g48">
</g>
</svg>
